<?xml version="1.0" standalone="no"?>
<!DOCTYPE svg PUBLIC "-//W3C//DTD SVG 20010904//EN"
 "http://www.w3.org/TR/2001/REC-SVG-20010904/DTD/svg10.dtd">
<svg version="1.0" xmlns="http://www.w3.org/2000/svg"
 width="174.000000pt" height="187.000000pt" viewBox="0 0 174.000000 187.000000"
 preserveAspectRatio="xMidYMid meet">
<metadata>
Created by potrace 1.16, written by Peter Selinger 2001-2019
</metadata>
<g transform="translate(0.000000,187.000000) scale(0.100000,-0.100000)"
fill="#000000" stroke="none">
<path d="M792 1437 c-37 -40 -28 -98 19 -123 36 -18 73 -10 99 23 27 34 25 69
-5 98 -32 33 -83 34 -113 2z"/>
<path d="M569 1361 c-33 -33 -35 -50 -14 -90 24 -46 74 -55 119 -20 35 28 36
80 1 114 -33 33 -70 32 -106 -4z"/>
<path d="M1019 1361 c-31 -32 -35 -50 -17 -84 26 -50 77 -61 122 -26 20 16 26
29 26 59 0 30 -6 43 -26 59 -37 29 -70 26 -105 -8z"/>
<path d="M750 1206 c-64 -32 -103 -91 -108 -164 -8 -117 50 -165 203 -166 71
-1 99 3 130 19 48 24 85 76 85 119 0 161 -168 265 -310 192z"/>
<path d="M1352 888 c-17 -17 -17 -479 0 -496 15 -15 53 -16 79 -2 18 10 19 24
19 248 0 172 -3 241 -12 250 -16 16 -70 16 -86 0z"/>
<path d="M1047 836 c-27 -7 -69 -27 -93 -45 -44 -31 -46 -31 -165 -31 -120 0
-121 0 -150 -29 -40 -41 -40 -91 0 -132 29 -29 31 -29 145 -29 91 0 118 -3
130 -16 12 -12 13 -20 6 -35 -10 -17 -22 -19 -130 -19 -130 0 -160 7 -205 49
-36 34 -232 102 -267 94 -13 -3 -33 -15 -45 -26 -28 -25 -31 -85 -5 -116 20
-24 406 -203 474 -220 73 -17 187 -14 259 9 35 10 110 47 167 80 l102 61 0
209 0 210 -87 -1 c-49 0 -110 -6 -136 -13z"/>
</g>
</svg>
