<?xml version="1.0" standalone="no"?>
<!DOCTYPE svg PUBLIC "-//W3C//DTD SVG 20010904//EN"
 "http://www.w3.org/TR/2001/REC-SVG-20010904/DTD/svg10.dtd">
<svg version="1.0" xmlns="http://www.w3.org/2000/svg"
 width="166.000000pt" height="179.000000pt" viewBox="0 0 166.000000 179.000000"
 preserveAspectRatio="xMidYMid meet">
<metadata>
Created by potrace 1.16, written by Peter Selinger 2001-2019
</metadata>
<g transform="translate(0.000000,179.000000) scale(0.100000,-0.100000)"
fill="#000000" stroke="none">
<path d="M497 1413 c-4 -3 -7 -140 -7 -303 l0 -297 -41 -12 c-64 -19 -153
-112 -173 -180 -20 -69 -20 -106 1 -170 21 -67 84 -138 148 -167 50 -24 51
-24 461 -24 398 0 411 1 432 20 24 22 38 63 27 79 -3 6 -19 11 -36 11 l-29 0
0 513 c0 386 -3 516 -12 525 -9 9 -109 12 -388 12 -207 0 -380 -3 -383 -7z
m743 -538 c0 -497 0 -505 -20 -505 -19 0 -20 8 -22 458 l-3 457 -22 3 c-13 2
-24 13 -27 28 l-6 24 -260 0 -260 0 0 -24 c0 -18 -7 -25 -30 -29 l-30 -6 0
-231 c0 -198 -2 -230 -15 -230 -13 0 -15 38 -15 280 l0 280 355 0 355 0 0
-505z m-130 400 c0 -20 5 -25 25 -25 l25 0 0 -440 0 -440 -193 0 -194 0 25 51
c34 68 35 152 2 227 -27 63 -100 132 -159 152 l-41 13 0 218 0 218 28 3 c19 2
28 9 30 26 l3 22 225 0 224 0 0 -25z m-445 -529 c193 -113 144 -398 -77 -448
-94 -21 -202 30 -255 119 -24 40 -28 59 -28 118 1 75 16 117 64 168 73 80 201
98 296 43z m626 -436 c-22 -19 -39 -20 -315 -20 -291 0 -291 0 -266 20 24 18
42 20 315 19 290 0 290 0 266 -19z"/>
<path d="M832 1253 c-44 -21 -66 -65 -57 -112 4 -20 9 -76 12 -126 2 -49 8
-94 13 -99 5 -5 24 2 45 18 l36 28 34 -26 c60 -46 61 -44 70 139 6 136 -1 156
-61 181 -42 18 -51 17 -92 -3z m82 -34 c34 -16 47 -57 31 -96 -20 -48 -73 -58
-112 -21 -33 30 -31 80 3 107 31 24 43 26 78 10z"/>
<path d="M750 850 c0 -20 5 -20 187 -18 170 3 188 5 191 21 3 16 -11 17 -187
17 -185 0 -191 -1 -191 -20z"/>
<path d="M962 558 c-7 -7 -12 -20 -12 -30 0 -10 -7 -21 -15 -24 -8 -4 -15 -15
-15 -25 0 -14 7 -19 25 -19 20 0 27 6 32 30 5 28 19 47 28 39 1 -2 -1 -26 -5
-54 -11 -72 2 -83 53 -45 23 17 49 30 59 30 23 0 24 28 1 37 -9 4 -30 -1 -46
-11 l-30 -17 7 32 c8 42 -8 69 -42 69 -16 0 -33 -5 -40 -12z"/>
<path d="M446 698 c-28 -39 -16 -96 24 -118 25 -13 47 -3 65 29 10 19 14 21
15 9 0 -10 11 -25 25 -34 23 -15 27 -15 49 0 54 35 36 136 -24 136 -23 0 -33
-6 -42 -25 l-11 -24 -19 24 c-24 31 -62 32 -82 3z"/>
<path d="M504 546 c-38 -17 -71 -57 -85 -107 -10 -32 -9 -42 6 -65 15 -24 21
-26 59 -19 51 9 71 9 122 0 37 -7 44 -5 58 16 11 18 13 33 7 62 -21 91 -97
143 -167 113z m70 -38 c14 -6 35 -30 46 -53 30 -62 27 -69 -22 -60 -53 9 -53
9 -107 0 l-44 -8 7 33 c8 44 32 79 59 90 30 12 32 12 61 -2z"/>
</g>
</svg>
