<?xml version="1.0" standalone="no"?>
<!DOCTYPE svg PUBLIC "-//W3C//DTD SVG 20010904//EN"
 "http://www.w3.org/TR/2001/REC-SVG-20010904/DTD/svg10.dtd">
<svg version="1.0" xmlns="http://www.w3.org/2000/svg"
 width="176.000000pt" height="175.000000pt" viewBox="0 0 176.000000 175.000000"
 preserveAspectRatio="xMidYMid meet">
<metadata>
Created by potrace 1.16, written by Peter Selinger 2001-2019
</metadata>
<g transform="translate(0.000000,175.000000) scale(0.100000,-0.100000)"
fill="#000000" stroke="none">
<path d="M581 1374 c-30 -8 -69 -23 -86 -34 -51 -31 -114 -106 -142 -167 -23
-49 -25 -65 -21 -143 4 -79 8 -98 46 -172 44 -91 76 -128 93 -111 7 7 -1 26
-25 61 -54 81 -79 156 -80 242 -1 65 3 82 29 128 77 140 224 204 335 147 15
-8 49 -34 78 -60 l51 -46 48 44 c67 62 108 81 173 81 99 -1 198 -74 247 -181
22 -48 25 -65 21 -132 -6 -92 -32 -156 -104 -257 -43 -60 -50 -75 -39 -84 11
-9 23 1 61 52 157 213 163 394 19 542 -118 122 -271 129 -386 19 l-37 -35 -55
45 c-80 65 -144 83 -226 61z"/>
<path d="M607 1195 c-52 -72 -55 -84 -29 -108 23 -21 42 -21 68 -2 10 8 29 15
42 15 21 0 22 -3 22 -99 l0 -99 -53 -30 c-67 -38 -132 -108 -165 -180 -22 -47
-26 -72 -27 -139 0 -46 -2 -83 -5 -83 -16 0 -30 28 -30 58 0 48 -16 72 -48 72
-44 0 -52 -16 -52 -106 l0 -83 73 -45 74 -46 407 0 c390 0 408 1 447 20 89 46
78 171 -20 237 -30 20 -46 23 -145 23 l-111 1 24 19 c16 14 31 18 50 14 42
-10 45 -10 48 7 3 11 -5 19 -21 23 -22 5 -25 10 -20 39 4 17 15 39 25 49 24
20 24 38 2 38 -11 0 -29 21 -48 55 -16 30 -36 55 -44 55 -8 0 -28 -12 -43 -27
l-28 -27 0 116 c0 141 9 156 71 120 l38 -22 25 33 c15 19 26 37 26 41 0 4 -18
34 -40 67 -37 53 -44 59 -76 59 -29 0 -38 -6 -55 -35 l-21 -35 -93 0 -93 0
-21 35 c-18 31 -25 35 -64 35 -42 0 -45 -2 -90 -65z m136 -10 l17 -35 115 0
115 0 17 35 c20 41 51 47 72 13 8 -13 20 -32 27 -43 8 -13 10 -26 4 -34 -7
-12 -12 -12 -34 2 -36 24 -58 21 -89 -11 -26 -27 -27 -32 -27 -145 0 -116 0
-117 -23 -117 -13 0 -34 11 -47 25 -13 14 -28 25 -34 25 -11 0 -66 -83 -66
-100 0 -6 -9 -10 -20 -10 -11 0 -20 -7 -20 -15 0 -8 9 -19 20 -25 13 -7 20
-21 20 -38 0 -16 5 -33 11 -39 7 -7 1 -14 -20 -23 -56 -23 -34 -52 23 -31 16
7 35 6 55 -2 29 -11 31 -14 31 -64 l0 -53 -50 0 c-43 0 -50 -3 -50 -20 0 -17
7 -20 50 -20 l50 0 0 -55 c0 -63 -19 -75 -40 -25 -10 24 -22 33 -56 42 -27 7
-44 18 -44 27 0 29 -50 99 -82 114 -49 23 -92 25 -96 6 -2 -12 7 -18 36 -23
44 -7 89 -43 96 -78 17 -82 14 -78 54 -78 36 0 62 -14 62 -32 0 -4 -73 -8
-161 -8 l-162 0 -69 42 -69 43 3 63 c4 74 21 86 28 20 3 -26 8 -49 10 -51 20
-18 93 -57 105 -57 13 0 14 7 8 37 -4 21 -8 72 -8 113 0 62 5 85 28 132 33 68
109 139 172 164 l45 17 0 115 c0 93 -3 119 -17 134 -19 22 -62 23 -89 3 -20
-15 -44 -20 -44 -7 0 4 16 28 35 55 28 37 41 47 63 47 22 0 32 -7 45 -35z
m144 -355 c18 -14 41 -20 78 -20 39 0 56 5 70 20 25 27 32 25 55 -12 26 -43
25 -47 -10 -59 -28 -10 -38 -28 -24 -42 4 -3 15 -2 26 4 25 14 32 6 19 -20 -7
-12 -17 -18 -26 -15 -10 4 -18 -3 -25 -20 -5 -14 -16 -26 -24 -26 -26 0 -29
-21 -5 -46 21 -22 30 -24 121 -24 152 0 208 -35 208 -131 0 -47 -2 -49 -40
-69 -51 -26 -184 -29 -194 -4 -10 27 -6 78 9 98 20 26 37 12 23 -19 -17 -38 4
-55 69 -55 46 0 54 3 51 17 -2 13 -14 19 -41 21 -33 3 -37 6 -37 31 0 34 -17
51 -51 51 -41 0 -73 -57 -66 -116 4 -43 4 -44 -24 -44 -29 0 -29 0 -29 65 0
58 -2 65 -20 65 -18 0 -20 -7 -20 -65 0 -62 -1 -65 -25 -65 l-24 0 -3 142 -3
142 -25 6 c-16 4 -21 8 -13 13 19 12 3 38 -19 31 -21 -6 -48 11 -48 32 0 10 6
11 24 4 13 -5 27 -6 30 -3 14 14 4 32 -24 42 -16 5 -30 14 -30 20 0 10 33 71
38 71 2 0 15 -9 29 -20z"/>
</g>
</svg>
