<?xml version="1.0" standalone="no"?>
<!DOCTYPE svg PUBLIC "-//W3C//DTD SVG 20010904//EN"
 "http://www.w3.org/TR/2001/REC-SVG-20010904/DTD/svg10.dtd">
<svg version="1.0" xmlns="http://www.w3.org/2000/svg"
 width="169.000000pt" height="188.000000pt" viewBox="0 0 169.000000 188.000000"
 preserveAspectRatio="xMidYMid meet">
<metadata>
Created by potrace 1.16, written by Peter Selinger 2001-2019
</metadata>
<g transform="translate(0.000000,188.000000) scale(0.100000,-0.100000)"
fill="#000000" stroke="none">
<path d="M723 1358 c-9 -19 -17 -55 -16 -83 0 -43 15 -82 110 -276 l110 -226
-36 -69 c-32 -62 -40 -70 -71 -75 -50 -8 -78 -28 -100 -75 -25 -51 -25 -67 0
-119 54 -112 215 -95 252 27 9 31 8 45 -4 77 -15 38 -15 41 14 92 l30 52 29
-53 c22 -41 26 -56 18 -72 -15 -27 -14 -91 2 -124 33 -67 130 -95 195 -55 34
21 64 75 64 116 0 67 -62 135 -122 135 -23 0 -33 10 -67 71 l-39 72 114 229
c84 169 114 239 114 266 0 44 -34 122 -52 122 -7 0 -66 -101 -131 -225 -65
-124 -122 -225 -126 -225 -3 0 -60 101 -126 225 -65 124 -125 225 -132 225 -7
0 -20 -15 -30 -32z m202 -343 c91 -173 163 -319 160 -325 -11 -17 -34 -11 -46
13 -6 12 -25 33 -41 45 -24 20 -68 88 -68 107 0 3 7 5 15 5 8 0 15 7 15 15 0
9 -9 15 -24 15 -30 0 -42 15 -20 24 13 5 14 9 4 21 -7 8 -20 15 -28 15 -13 0
-12 3 4 15 16 13 17 16 4 25 -8 5 -24 10 -35 10 -18 1 -18 2 3 11 30 12 23 33
-13 39 -25 4 -26 6 -12 19 21 17 13 31 -19 31 -13 0 -24 5 -24 10 0 6 5 10 10
10 6 0 10 7 10 15 0 8 -9 15 -20 15 -25 0 -25 9 -2 26 16 12 16 13 0 18 -55
18 -54 17 -30 27 29 11 28 27 -3 35 -19 5 -25 13 -25 33 0 24 7 41 16 41 1 0
77 -142 169 -315z m354 257 c0 -39 -17 -81 -103 -251 l-103 -204 -21 35 -22
35 117 221 c64 121 121 219 125 216 4 -3 8 -26 7 -52z m-339 -636 c-1 -6 -7
-22 -14 -36 -12 -21 -12 -29 0 -52 21 -41 17 -83 -12 -117 -62 -74 -174 -34
-174 64 0 62 45 105 109 105 24 0 34 7 46 30 15 28 45 33 45 6z m190 -6 c10
-24 19 -30 42 -30 36 0 84 -24 98 -49 5 -11 10 -36 10 -56 0 -47 -14 -71 -52
-91 -88 -46 -189 64 -132 145 15 21 15 25 -2 57 -17 30 -17 36 -4 44 23 15 27
13 40 -20z"/>
<path d="M434 1233 c-47 -52 -51 -70 -21 -100 50 -51 168 -36 183 22 5 19 -3
35 -31 70 -49 59 -81 61 -131 8z"/>
<path d="M312 1054 c-21 -14 -22 -22 -22 -144 0 -122 1 -130 22 -144 14 -10
44 -16 76 -16 l53 0 -7 -170 c-7 -169 -7 -171 16 -195 34 -36 100 -35 130 2
19 25 21 36 16 128 -3 55 -8 130 -11 168 l-7 67 61 0 c94 0 101 11 101 160 0
168 11 160 -223 160 -149 0 -187 -3 -205 -16z m388 -144 l0 -120 -185 0 -185
0 0 120 0 120 185 0 185 0 0 -120z m-147 -257 c10 -150 8 -238 -5 -251 -15
-15 -54 -16 -63 -2 -3 6 1 10 9 10 9 0 16 7 16 15 0 9 -9 15 -25 15 -14 0 -25
5 -25 10 0 6 12 10 26 10 34 0 29 33 -6 39 l-25 4 25 6 c14 4 25 13 25 21 0 8
-11 17 -25 19 l-25 4 25 6 c32 9 40 41 10 41 -18 0 -21 4 -16 23 3 12 6 46 6
75 l0 52 33 0 34 0 6 -97z"/>
</g>
</svg>
