<?xml version="1.0" standalone="no"?>
<!DOCTYPE svg PUBLIC "-//W3C//DTD SVG 20010904//EN"
 "http://www.w3.org/TR/2001/REC-SVG-20010904/DTD/svg10.dtd">
<svg version="1.0" xmlns="http://www.w3.org/2000/svg"
 width="160.000000pt" height="173.000000pt" viewBox="0 0 160.000000 173.000000"
 preserveAspectRatio="xMidYMid meet">
<metadata>
Created by potrace 1.16, written by Peter Selinger 2001-2019
</metadata>
<g transform="translate(0.000000,173.000000) scale(0.100000,-0.100000)"
fill="#000000" stroke="none">
<path d="M659 1337 c-68 -40 -190 -112 -271 -160 l-148 -88 0 -419 0 -420 539
0 c482 0 539 2 545 16 9 23 7 807 -2 820 -5 8 -433 265 -533 320 -3 2 -62 -29
-130 -69z m381 -124 l250 -147 0 -388 0 -388 -66 0 c-57 0 -65 2 -60 18 33
114 41 201 27 306 -14 103 -54 222 -102 301 -82 138 -229 242 -328 233 -74 -7
-122 -36 -149 -88 -18 -37 -34 -51 -87 -77 -83 -42 -90 -63 -45 -133 18 -28
38 -54 46 -58 10 -5 5 -20 -21 -62 -56 -89 -79 -171 -80 -275 0 -49 4 -107 9
-127 l8 -38 -81 0 -81 0 0 388 0 389 248 146 c136 81 251 147 255 147 4 0 120
-66 257 -147z m-268 -120 c30 -35 42 -69 49 -137 5 -59 11 -73 33 -93 53 -46
135 -23 157 45 11 34 12 35 26 16 24 -31 64 -115 84 -173 41 -119 45 -298 9
-424 l-11 -38 -71 3 -71 3 -14 40 c-15 44 -65 101 -97 111 -38 11 -55 34 -50
63 7 32 -29 146 -54 174 -9 10 -34 28 -54 38 -31 16 -38 25 -38 48 0 26 4 29
44 35 37 6 46 12 56 37 17 40 -1 61 -23 29 -13 -19 -30 -24 -108 -32 -79 -8
-95 -7 -108 7 -11 11 -13 18 -5 23 16 10 34 48 34 70 0 12 11 24 30 32 22 9
37 27 51 61 16 37 29 51 57 63 48 20 56 19 74 -1z m131 -31 c44 -30 67 -68 69
-117 1 -42 -16 -65 -50 -65 -42 0 -62 27 -62 84 0 29 -9 70 -20 94 l-20 43 23
-7 c12 -4 39 -18 60 -32z m-271 -314 c2 -26 11 -36 53 -58 47 -25 51 -31 75
-99 l24 -73 -32 -29 c-38 -34 -65 -36 -111 -8 -25 15 -37 17 -45 9 -8 -8 -4
-18 17 -35 40 -36 88 -41 136 -17 31 16 40 18 44 8 3 -8 26 -23 51 -35 45 -22
86 -72 86 -105 0 -14 -23 -16 -224 -16 l-223 0 -12 57 c-24 121 -6 231 55 340
51 92 100 120 106 61z"/>
<path d="M809 771 c-45 -45 -38 -64 51 -155 l80 -81 75 76 c64 66 75 81 75
111 0 66 -82 98 -132 51 l-23 -22 -28 25 c-37 32 -62 30 -98 -5z m95 -41 l34
-31 37 32 c29 26 40 30 53 22 33 -20 24 -47 -36 -106 l-58 -58 -57 60 c-31 33
-57 64 -57 70 0 12 28 41 40 41 5 0 25 -14 44 -30z"/>
</g>
</svg>
