<svg version="1.1" id="Layer_1" xmlns="http://www.w3.org/2000/svg" xmlns:xlink="http://www.w3.org/1999/xlink" x="0px" y="0px"
	 width="100%" viewBox="0 0 704 672" enable-background="new 0 0 704 672" xml:space="preserve">
<path fill="#000000" opacity="1.000000" stroke="none" 
	d="
M471.165283,476.036316 
	C472.731171,486.153015 474.843048,495.788361 474.222900,505.694427 
	C473.997711,509.291138 475.109467,511.917297 478.210236,514.184204 
	C482.505463,517.324341 485.977051,521.390869 489.152618,525.746460 
	C496.972961,536.472595 506.585327,544.440125 520.635742,545.358276 
	C534.260132,546.248535 547.572754,541.583679 554.920654,528.629578 
	C556.889954,525.157776 558.886597,521.679199 561.180786,518.422180 
	C562.588806,516.423157 564.434509,514.251160 567.333740,514.990173 
	C570.200134,515.720703 571.447815,518.126038 572.131042,520.861389 
	C575.835571,535.691650 570.327271,547.441345 559.334351,556.836853 
	C547.028870,567.354065 532.393127,571.710999 516.287537,570.898071 
	C504.617493,570.308960 493.184692,568.373779 482.383087,563.634460 
	C477.387329,561.442627 473.181671,558.198120 470.219788,553.603027 
	C468.390045,550.764343 466.836060,550.738464 464.984406,553.402222 
	C464.889343,553.539062 464.792847,553.675720 464.686462,553.803650 
	C458.005920,561.834656 458.005798,561.834534 462.996338,570.832520 
	C467.215240,578.439270 464.562347,585.671936 456.066254,589.568665 
	C445.519348,594.406128 434.220886,596.666443 422.866150,598.062500 
	C407.129028,599.997314 391.990356,604.164795 376.871735,608.599243 
	C372.556824,609.864868 368.237793,610.884949 364.039307,608.263428 
	C362.994934,619.990112 356.813751,627.912964 346.803711,632.982727 
	C343.006256,634.905945 338.918549,634.935303 335.695221,631.622375 
	C333.838501,629.714111 332.227661,629.437317 330.044586,630.836487 
	C322.056030,635.956360 314.723694,631.293518 307.986938,628.226807 
	C303.490936,626.180115 302.661652,619.985779 301.966919,615.063477 
	C300.699768,606.085632 302.435883,597.828857 309.190399,591.141846 
	C311.106079,589.245239 311.921906,586.599792 313.267487,584.315308 
	C315.585144,580.380493 313.937866,578.861145 310.221375,577.461975 
	C303.137329,574.794922 295.417542,573.518005 289.778778,567.561646 
	C286.938477,564.561462 283.785370,565.518738 282.555206,569.358398 
	C280.879181,574.589417 277.913788,578.997192 274.108337,582.750183 
	C269.493011,587.301819 264.738434,591.782104 259.605743,595.722107 
	C252.699982,601.023254 245.320847,598.865967 238.372345,595.564209 
	C235.749496,594.317871 233.603394,592.840698 230.506607,593.973145 
	C228.627670,594.660156 226.606018,594.042236 224.656281,593.364746 
	C220.768555,592.013916 217.494858,589.328247 213.204437,588.723755 
	C210.704056,588.371399 209.707840,586.005371 209.821762,583.317871 
	C210.230804,573.668396 221.531311,561.352600 231.148819,559.732849 
	C234.526855,559.163879 237.964294,558.042847 240.986801,556.441772 
	C249.170227,552.106873 251.773102,544.944092 249.178314,533.610596 
	C247.735321,527.307800 247.575699,521.143005 248.597870,514.799744 
	C251.094421,499.306824 249.495453,484.010529 246.092987,468.813171 
	C243.909531,459.060608 244.758087,449.129883 245.958801,439.464539 
	C247.425049,427.661743 245.154037,416.666168 241.927673,405.598694 
	C240.763458,401.604980 239.936630,397.513214 238.782318,393.516266 
	C233.586655,375.525879 238.739044,359.500092 248.853683,344.888580 
	C258.042511,331.614471 264.718079,317.425690 266.227661,301.383118 
	C267.615387,286.635681 267.381104,271.793823 265.495819,257.014893 
	C264.571747,249.770706 264.260498,242.442001 262.032806,235.420486 
	C259.165100,226.381668 251.474854,221.450562 244.759949,215.876755 
	C229.352600,203.087662 224.634918,187.448959 229.988861,168.149017 
	C232.323685,159.732361 236.267319,152.070251 239.296051,143.996826 
	C241.286575,138.690872 249.585297,136.446747 256.389160,138.603439 
	C262.762451,140.623642 268.590546,143.826736 274.596954,146.654572 
	C279.860870,149.132828 285.200348,151.450241 290.471832,153.912781 
	C292.773651,154.988037 295.003937,155.007858 297.168243,153.758148 
	C308.666443,147.118881 320.539429,149.502014 332.539948,151.966675 
	C344.221039,154.365753 355.236450,158.298981 365.234955,164.818054 
	C371.137238,168.666382 378.109375,171.675323 378.738373,180.239014 
	C378.833527,181.534821 379.887054,182.082565 381.255005,182.160614 
	C385.809235,182.420517 388.959198,185.147049 391.525696,188.538757 
	C401.108307,201.202637 407.282898,215.479736 411.151093,230.803665 
	C413.344604,239.493301 415.616333,248.159378 415.314270,257.270325 
	C415.053741,265.127838 411.014679,269.776825 403.095215,270.058044 
	C397.227692,270.266357 391.544830,271.632324 385.737671,272.082306 
	C383.305664,272.270752 381.486786,273.365723 382.518860,275.803833 
	C387.853424,288.405640 387.255432,301.868286 388.607208,315.054504 
	C389.684814,325.566132 396.635742,333.134003 402.131104,341.391602 
	C416.048553,362.304840 432.146393,381.751434 444.148621,403.954712 
	C455.834412,425.572540 464.701813,448.259308 470.199158,472.235748 
	C470.459381,473.370758 470.794128,474.488678 471.165283,476.036316 
M260.768463,452.972534 
	C265.471832,452.255127 267.227081,455.881104 269.039825,458.950348 
	C273.691498,466.826447 279.544464,473.863586 287.071655,478.724976 
	C291.970886,481.889099 294.510834,485.425873 295.389404,490.766541 
	C295.746948,492.939850 296.412048,494.997253 298.201813,496.464142 
	C302.831909,500.259033 307.408417,504.124664 312.150208,507.775146 
	C313.880981,509.107544 315.511414,510.932709 318.012848,511.120239 
	C319.116089,508.415466 318.855194,505.891998 318.865082,503.435699 
	C318.951843,481.938171 318.757721,460.437042 319.088104,438.943756 
	C319.388184,419.420502 324.927124,401.851654 340.018738,388.341705 
	C343.674927,385.068726 346.078369,380.892059 348.561615,376.736786 
	C352.017426,370.954193 357.338898,369.622314 363.572815,372.136292 
	C370.685333,375.004608 374.812958,382.575165 382.767487,384.035492 
	C383.308929,384.134918 383.878998,384.829498 384.178192,385.385834 
	C389.345428,394.993805 394.086548,404.763885 392.518707,416.160370 
	C389.323730,439.384705 381.826141,461.526855 374.565979,483.640411 
	C370.497437,496.032715 370.427002,507.585724 374.971069,519.625793 
	C380.120209,533.268982 386.251617,546.686584 387.003632,561.591492 
	C387.283478,567.138306 390.849731,569.242126 395.509460,570.481628 
	C399.801514,571.623413 403.451996,572.268311 406.864777,567.711365 
	C409.839874,563.738831 413.344086,560.285095 415.110596,555.450745 
	C416.435364,551.825378 418.943085,548.887512 421.739105,546.176025 
	C427.785919,540.312134 432.083923,533.408813 435.301392,525.514954 
	C440.584076,512.554382 448.256531,502.751190 466.176910,506.160583 
	C466.438354,506.210358 466.765106,505.916748 467.178406,505.730652 
	C468.132538,503.577393 467.802216,501.235626 467.663269,498.943756 
	C466.516724,480.033661 461.835388,461.788666 455.953552,443.960571 
	C449.203644,423.501373 439.249969,404.440002 427.015198,386.663116 
	C416.157623,370.887238 405.413940,355.016235 394.018951,339.632385 
	C385.425293,328.030518 381.019043,315.641205 381.696899,301.097198 
	C382.076111,292.961609 380.306061,284.895142 376.575745,277.409790 
	C375.200928,274.651062 373.693634,274.079529 370.634430,274.975159 
	C359.584351,278.210388 348.967621,283.981354 336.787750,281.332520 
	C335.656097,281.086426 334.365265,281.305481 333.750427,282.548248 
	C332.944641,284.177063 334.278015,284.926331 335.242096,285.818359 
	C339.978333,290.200745 345.601471,290.824768 351.597839,289.569946 
	C356.323120,288.581116 361.003632,287.380157 365.720337,286.347839 
	C367.468445,285.965240 369.047729,286.443970 370.164276,287.937286 
	C371.205414,289.329773 371.147339,290.906250 370.052734,292.092133 
	C362.152283,300.651245 353.877136,308.307251 341.012726,308.391022 
	C332.831024,308.444305 326.865906,305.275208 323.992004,297.891663 
	C320.551392,289.052155 315.095703,282.178741 307.695984,276.397034 
	C302.447845,272.296448 301.851501,267.799133 304.590759,261.784851 
	C306.901184,256.712128 311.046295,253.371490 315.552185,250.455933 
	C317.067352,249.475510 319.407928,248.566849 320.324585,250.837433 
	C321.993347,254.971069 326.461060,258.086700 324.945953,263.496613 
	C327.695282,255.233017 331.849121,247.855148 336.534149,240.813202 
	C344.275848,229.177002 348.613281,215.603256 357.417664,204.582901 
	C361.885284,198.990814 366.367188,193.392242 370.493195,187.549820 
	C375.146698,180.960342 374.217987,177.248322 367.698517,172.515762 
	C353.429810,162.157959 337.043793,157.624237 319.959106,155.039307 
	C313.629578,154.081650 307.338470,154.108688 301.548706,157.508499 
	C296.308899,160.585388 291.116241,160.025604 285.823853,157.523911 
	C278.659729,154.137421 271.418518,150.914017 264.100983,147.570663 
	C262.595184,154.806839 250.874435,161.765900 244.127197,159.928329 
	C237.822601,158.211288 237.678604,158.219986 236.287064,164.431091 
	C235.933716,166.008301 234.534592,167.331146 235.170502,169.440079 
	C241.517792,168.937317 242.195892,174.987000 245.108368,178.492538 
	C248.066376,182.052887 249.246307,186.976273 253.472107,190.488525 
	C253.960281,188.589386 254.304260,187.489059 254.522903,186.364380 
	C257.152374,172.839722 269.317719,166.655197 281.690796,172.696503 
	C284.816833,174.222824 287.681152,176.280106 290.691589,178.049454 
	C295.966492,181.149750 301.716736,183.207077 307.781860,182.627319 
	C313.161041,182.113083 318.836731,181.501373 323.909302,177.257858 
	C321.783447,176.334656 320.411011,175.833862 319.126770,175.163879 
	C314.385162,172.690186 314.076172,167.992310 318.519135,164.935516 
	C321.374146,162.971268 324.704376,163.089630 327.602783,164.396225 
	C330.611145,165.752350 332.271973,168.403259 332.239044,172.035995 
	C332.194122,176.988373 329.400757,180.228149 325.641541,182.562607 
	C316.139648,188.463257 305.866364,188.631973 295.357910,185.860016 
	C289.589539,184.338394 285.316620,179.985062 280.023987,177.595749 
	C271.018768,173.530411 258.619965,176.856216 260.285187,190.166153 
	C261.195496,197.442459 264.993347,203.222809 270.968750,207.441086 
	C274.788086,210.137329 279.042206,212.082642 283.411072,213.738647 
	C285.451355,214.512039 287.324921,215.700775 286.445099,218.057327 
	C285.435852,220.760483 283.057861,220.240540 280.941895,219.289627 
	C279.120880,218.471313 277.309113,217.606812 275.582153,216.608887 
	C261.335815,208.376663 249.335403,197.850830 241.450378,183.119232 
	C240.300842,180.971527 239.157349,178.744186 237.045731,177.574280 
	C235.020218,178.212952 234.433853,179.496857 234.340591,181.110672 
	C233.836166,189.838226 235.098770,197.963913 241.211990,204.879105 
	C245.547272,209.783142 250.599579,213.845169 255.424591,218.183044 
	C262.932770,224.933167 267.751831,232.801117 269.684631,243.136780 
	C271.142609,250.933304 270.795868,258.694397 271.866943,266.415131 
	C274.436951,284.940918 274.130890,303.355499 266.950623,320.914307 
	C264.642914,326.557678 264.593964,333.223083 260.514526,337.913116 
	C251.113861,348.720795 245.890656,361.052124 244.465790,375.276154 
	C243.409348,385.822296 246.004623,395.542725 248.646225,405.616821 
	C251.550430,416.692505 256.270599,422.963776 268.519196,420.274597 
	C268.672394,420.240936 268.848450,420.330780 269.013458,420.328888 
	C275.999573,420.249664 279.454163,424.207611 281.157501,430.549622 
	C282.580444,435.847626 284.485718,441.014099 286.025360,446.283264 
	C287.425507,451.074982 288.840820,455.882050 289.829407,460.767365 
	C290.487640,464.020294 289.582733,466.083191 285.461456,464.340179 
	C282.246643,462.980530 279.827881,461.150177 278.149750,457.992950 
	C275.896606,453.753784 273.158752,449.955566 267.243805,451.457184 
	C265.729034,451.841736 264.431244,450.667297 263.224976,449.747345 
	C262.056610,448.856293 260.932220,447.652191 259.273560,448.840546 
	C258.261353,450.482666 259.619995,451.670715 259.303131,453.048523 
	C256.854279,453.034058 256.546143,454.392731 256.380157,456.598175 
	C255.758499,464.857330 256.351685,473.208405 254.384995,481.380341 
	C253.766251,483.951324 254.343872,486.659027 254.784592,489.311371 
	C255.572800,494.054626 256.113037,498.747986 255.442276,503.671417 
	C254.027481,514.055969 252.514740,524.721130 255.029465,534.949097 
	C257.830017,546.339722 252.424377,556.937439 241.821793,562.051331 
	C236.901657,564.424438 231.376328,564.808960 226.590866,566.782715 
	C236.348557,575.102722 225.610764,580.142517 223.734268,586.424072 
	C229.000534,590.021240 231.455902,589.160217 232.842621,583.506287 
	C233.670914,580.129211 234.646286,576.704407 237.389755,574.242004 
	C239.290192,572.536316 241.453415,570.764343 244.019806,572.588989 
	C246.542023,574.382263 247.247559,576.904175 246.075851,580.081482 
	C244.751602,583.672485 242.503922,586.732422 240.671417,589.972717 
	C246.695923,594.308960 253.946213,593.838684 258.995880,589.109253 
	C261.785095,586.496948 264.690430,584.005615 267.596588,581.521912 
	C272.137299,577.641296 275.351715,572.831726 277.318573,567.253479 
	C278.423584,564.119507 277.596588,560.673950 278.654694,557.412415 
	C284.195770,540.331665 288.700287,523.002441 289.535309,504.956665 
	C289.774017,499.797943 289.124115,494.912567 284.939423,490.806244 
	C277.216156,483.227570 270.319824,474.878693 264.122742,465.976074 
	C261.390198,462.050598 259.486023,457.901184 260.768463,452.972534 
M321.475342,570.850342 
	C321.256378,579.354492 319.602539,587.654358 313.922302,594.101990 
	C306.718353,602.279053 307.814423,610.999146 310.203400,620.785400 
	C313.065216,616.186340 313.440460,611.031250 316.918854,607.442566 
	C318.983459,605.312500 320.970306,602.177368 324.353027,604.483093 
	C327.359802,606.532532 326.449158,609.927368 325.250580,612.704956 
	C323.607513,616.512512 321.624969,620.183533 319.011078,623.461548 
	C318.298035,624.355774 317.366821,625.271179 318.090759,626.564636 
	C318.775177,627.787537 320.036255,627.652710 321.196777,627.687683 
	C326.346313,627.843018 330.945587,624.177917 332.051666,619.035583 
	C332.791199,615.597534 333.710297,612.203674 335.933868,609.396484 
	C337.185760,607.816040 338.792633,606.331055 341.026489,606.973572 
	C343.226715,607.606323 343.896027,609.612366 344.158813,611.672424 
	C344.725220,616.112793 342.817474,619.750549 340.369476,623.232483 
	C339.480774,624.496582 337.742371,625.724365 339.367981,627.555481 
	C340.728821,629.088379 342.382812,628.509338 343.998993,627.983093 
	C350.150513,625.980103 353.735138,621.243896 356.581787,615.872253 
	C357.626556,613.900818 359.245392,611.927856 358.395447,609.342163 
	C355.588348,600.802612 356.048676,591.932190 355.845398,583.143555 
	C355.355835,561.977051 356.617645,540.938354 360.523712,520.086060 
	C361.024536,517.412598 361.507172,514.542908 360.180634,511.592499 
	C359.236023,511.592499 358.424011,511.617401 357.613953,511.588562 
	C350.788849,511.345520 349.698364,510.059753 350.382294,503.094360 
	C350.690948,499.950745 350.928589,496.798615 351.310822,493.664062 
	C353.731750,473.808990 361.293060,455.458466 367.849640,436.796204 
	C371.469543,426.492554 375.426819,416.284058 374.053619,404.821167 
	C373.244995,398.070770 370.671265,391.779236 370.239990,384.876038 
	C369.977478,380.674255 365.198456,378.110931 360.742523,377.111664 
	C356.778259,376.222656 354.031372,378.044739 352.130249,381.483734 
	C349.857361,385.595215 347.001587,389.329773 343.541687,392.460632 
	C330.099243,404.624634 325.433380,420.332184 325.230957,437.742706 
	C324.936829,463.043274 325.461548,488.339630 324.148010,513.645142 
	C323.260925,530.735229 320.970001,547.796021 322.111328,564.978394 
	C322.219940,566.613708 321.780548,568.285400 321.475342,570.850342 
M407.955475,242.578842 
	C406.692963,237.598114 405.551361,232.582932 404.144470,227.643326 
	C400.431274,214.606628 395.623535,202.072937 386.701569,191.548721 
	C385.535278,190.173004 384.268585,188.335800 382.221497,189.095947 
	C380.226837,189.836639 380.329193,192.024826 380.258240,193.854050 
	C380.219635,194.849487 380.385620,195.853226 380.341583,196.848022 
	C379.781860,209.490677 379.312195,222.559937 372.537323,233.405334 
	C366.646454,242.835617 368.082886,250.382294 373.602112,258.550171 
	C374.626007,260.065399 375.573669,261.640503 376.445312,263.248291 
	C377.710663,265.582184 379.466705,266.288269 382.185120,266.096252 
	C389.621002,265.570984 397.091705,265.902100 404.426941,263.864868 
	C407.376526,263.045654 408.866882,261.718231 408.842957,258.849274 
	C408.799988,253.699677 409.128571,248.527954 407.955475,242.578842 
M564.794922,541.184998 
	C567.590698,535.052124 569.103821,528.831543 566.286133,521.696228 
	C563.390259,523.650330 562.405457,526.346863 561.162231,528.766968 
	C552.609375,545.415588 531.789185,555.710754 512.057495,549.437622 
	C501.069427,545.944214 492.922119,539.026978 486.076630,530.193420 
	C482.863220,526.046753 479.886902,521.709045 474.627563,518.218872 
	C473.901123,526.070862 474.176636,533.188171 473.240601,540.214783 
	C472.136749,548.501160 475.869080,554.344910 483.379547,557.812561 
	C499.490479,565.251038 516.509155,566.792603 533.606018,563.473022 
	C546.670715,560.936340 557.844421,554.300232 564.794922,541.184998 
M372.183838,267.349762 
	C370.939545,261.696198 366.869232,257.465271 364.610474,252.307159 
	C362.249329,246.915146 361.841827,241.750046 365.212952,236.649689 
	C371.697510,226.838776 373.531250,215.795181 373.645020,204.335464 
	C373.664948,202.326172 374.645508,199.573715 371.953003,198.638199 
	C369.481293,197.779404 368.224548,200.199905 366.716187,201.672897 
	C359.440399,208.778183 355.097656,217.738297 350.570038,226.647232 
	C344.933868,237.737244 337.426361,247.860138 333.333069,259.751831 
	C331.760834,264.319489 331.195221,269.052002 334.816528,272.864807 
	C338.423340,276.662354 343.181396,277.301819 348.187347,276.138153 
	C350.122498,275.688324 352.095673,275.321716 353.958984,274.657623 
	C359.989563,272.508240 366.654724,272.057648 372.183838,267.349762 
M400.015717,596.444458 
	C401.772614,595.936462 403.500000,595.258240 405.291107,594.947754 
	C418.023743,592.740662 430.778015,590.657654 443.506165,588.425659 
	C447.798035,587.673096 451.868530,586.147888 455.479584,583.647705 
	C459.671692,580.745117 459.891541,576.040894 456.833954,570.879456 
	C453.722809,565.627686 450.808197,568.148376 447.533722,570.458069 
	C442.291382,574.155701 436.430847,577.049866 430.052185,576.770020 
	C425.931427,576.589233 424.271271,578.056274 422.973969,581.247253 
	C421.216339,585.570374 418.440094,589.036682 414.161957,591.043091 
	C405.732605,594.996399 398.170929,590.394531 398.395142,581.287292 
	C398.451874,578.983948 397.727173,578.113770 395.870361,577.152527 
	C386.384399,572.242188 376.728607,574.882629 367.117554,576.380981 
	C365.901520,576.570618 364.004059,576.878784 364.185730,579.258850 
	C367.584839,580.357056 369.988129,577.141479 373.112488,577.175598 
	C374.720520,577.193115 376.202667,577.256897 376.893921,578.880005 
	C377.592377,580.519958 376.767365,581.964539 375.425720,582.737793 
	C373.424255,583.891235 371.231018,584.717773 369.100800,585.640625 
	C365.897522,587.028381 365.658295,587.423828 366.174713,591.170349 
	C366.905609,590.566345 367.478394,589.983887 368.149933,589.556763 
	C371.009583,587.738037 374.556854,584.212524 377.249695,587.807800 
	C380.275604,591.847717 375.314087,593.817505 372.658173,595.544128 
	C369.756195,597.430725 367.894318,599.469910 367.949768,603.268555 
	C371.838501,604.383789 375.512054,603.957581 379.199402,602.806396 
	C385.861664,600.726624 392.542419,598.706238 400.015717,596.444458 
M441.383453,523.928040 
	C440.198944,527.345276 438.514496,530.614990 438.185486,534.352844 
	C438.916992,534.889771 439.586609,535.365967 440.240082,535.863281 
	C448.522064,542.166077 447.987183,553.230042 438.984955,558.298340 
	C434.122040,561.036194 430.590729,564.603638 429.100830,570.118103 
	C437.892242,571.845947 449.388641,565.726990 449.971802,558.385864 
	C450.608582,550.369324 455.125275,546.229919 461.767059,543.414307 
	C464.811615,542.123596 466.409180,539.928650 467.058838,536.711670 
	C468.157471,531.271667 467.893005,525.765869 468.020905,520.293701 
	C468.168457,513.980042 465.132385,511.190674 458.802307,511.695831 
	C451.003021,512.318176 444.733582,515.462585 441.383453,523.928040 
M295.298218,506.222900 
	C294.810913,521.753357 291.136475,536.717590 287.025543,551.833435 
	C293.792969,544.121643 302.208130,541.686584 311.857208,542.734314 
	C315.466675,543.126221 316.969513,541.729736 316.895782,537.988403 
	C316.784821,532.353027 316.654114,526.692383 317.560455,521.084717 
	C317.780945,519.720642 317.702179,518.297668 316.574097,517.394775 
	C310.026123,512.153870 303.423187,506.981537 296.978973,501.896606 
	C295.378021,503.076508 295.446411,504.286957 295.298218,506.222900 
M362.263000,550.666931 
	C361.633148,557.807312 359.900299,564.944824 361.732208,572.282532 
	C369.022583,570.958862 375.818909,569.724915 382.275238,568.552673 
	C381.371613,549.329224 374.310730,532.209473 367.674591,514.965271 
	C367.153900,514.988220 366.633179,515.011169 366.112488,515.034119 
	C364.849091,526.609741 363.585693,538.185303 362.263000,550.666931 
M310.989594,559.675415 
	C316.687256,563.904480 310.504364,567.094360 309.813965,570.646606 
	C314.167694,573.545410 314.905640,573.274963 315.935059,568.868896 
	C317.125916,563.771851 316.822937,558.612793 316.710083,553.463440 
	C316.640656,550.295593 314.846558,548.503662 311.744934,548.302490 
	C307.283508,548.013184 302.866821,548.373474 298.404816,549.805481 
	C302.899780,553.326538 302.987518,554.343567 299.339752,558.466125 
	C298.678406,559.213562 298.014252,559.962158 297.303406,560.661438 
	C295.512085,562.423523 293.862610,564.380066 296.670898,566.402344 
	C299.071014,568.130676 301.175354,567.756897 302.705322,564.737915 
	C304.222260,561.744568 306.200500,558.955688 310.989594,559.675415 
z"/>
<path fill="#000000" opacity="1.000000" stroke="none" 
	d="
M161.156403,117.391884 
	C163.653152,111.768898 166.049118,106.586174 173.169189,106.824188 
	C174.188461,106.858261 175.333939,106.394516 175.458969,105.271072 
	C176.234055,98.307129 180.676071,92.805923 182.886505,86.416290 
	C183.816544,83.727859 184.360565,81.012070 184.829651,78.222183 
	C185.679733,73.166321 189.397705,71.770355 193.574478,74.687843 
	C197.721237,77.584358 199.566055,82.135139 201.970215,86.272629 
	C202.783447,87.672203 203.008987,89.436279 204.646881,90.340256 
	C208.058350,89.614532 208.962494,86.352249 210.987640,84.282883 
	C213.725357,81.485435 215.994247,77.589920 220.874115,79.353996 
	C224.343582,80.608215 227.689575,87.291695 227.031906,91.626617 
	C225.752151,100.061676 223.527481,108.163651 218.056824,115.029617 
	C217.262482,116.026550 216.232178,117.542793 216.472336,118.538673 
	C217.761459,123.884361 214.081604,125.524818 210.455063,127.389771 
	C209.292908,127.987404 207.879028,128.640060 207.266388,129.674042 
	C203.043365,136.801437 195.442871,139.094208 188.795120,142.664459 
	C186.203857,144.056137 183.048111,144.936584 180.818848,141.537384 
	C179.944611,140.204376 178.600769,140.235260 177.245819,140.422134 
	C176.423416,140.535553 175.616821,140.762985 174.794601,140.878433 
	C160.809265,142.842194 154.897217,135.780762 159.368591,122.456963 
	C159.897522,120.880852 160.455917,119.314629 161.156403,117.391884 
z"/>
<path fill="#000000" opacity="1.000000" stroke="none" 
	d="
M279.184509,507.722534 
	C271.444763,509.486206 266.335175,506.220459 262.350922,500.398254 
	C259.625641,496.415710 257.948730,492.074585 256.884735,486.851807 
	C266.780487,492.432159 276.903229,495.976746 285.044464,504.201111 
	C284.470154,505.793793 282.009857,506.680847 279.184509,507.722534 
z"/>
</svg>